<svg width="161" height="160" viewBox="0 0 161 160" fill="none" xmlns="http://www.w3.org/2000/svg">
<rect x="0.5" width="160" height="160" rx="80" fill="#ECECEC"/>
<path d="M64.5 118.118H48.5C44.2565 118.118 40.1869 116.444 37.1863 113.466C34.1857 110.487 32.5 106.448 32.5 102.235V59.8824C32.5 55.6701 34.1857 51.6304 37.1863 48.6518C40.1869 45.6733 44.2565 44 48.5 44H112.5C116.743 44 120.813 45.6733 123.814 48.6518C126.814 51.6304 128.5 55.6701 128.5 59.8824V102.235C128.5 106.448 126.814 110.487 123.814 113.466C120.813 116.444 116.743 118.118 112.5 118.118H96.5L80.5 134L64.5 118.118Z" fill="white"/>
<path d="M59.1626 70.4691H101.829" stroke="#ECECEC" stroke-width="7.2" stroke-linecap="round" stroke-linejoin="round"/>
<path d="M59.1626 91.6473H91.1626" stroke="#ECECEC" stroke-width="7.2" stroke-linecap="round" stroke-linejoin="round"/>
</svg>
